<svg width="182" height="40" viewBox="0 0 349 48" xmlns="http://www.w3.org/2000/svg"><g fill="none" fill-rule="evenodd"><path d="M0 0h348.631579v48H0z"/><path d="M294.374125.0010695l30.222993 38.9028765 2.172648 3.1015352-.102432-1.2459616c-.059902-.841336-.094246-1.5284534-.101139-2.0651081l-.001294-.1941998V.5411644h2.647073V48h-.846417L298.104826 9.0944498c-.318679-.420668-.728942-.9892168-1.230788-1.7075242l-.192485-.2763889-.714332-1.1122746.102432 1.2459615.102433 2.288719v37.9296362h-2.647073V.0010695h.849112zM224.258237 0l21.359882 27.8576681L266.978001 0h.679289v47.4615093h-2.67942V10.205655l.132085-4.0747756c0 .0454536-.272255.4946414-.81407 1.3475636-.57315.8843386-1.096769 1.6397111-1.567245 2.2661176l-.198368.2605641-16.637203 21.6572714h-.749375l-16.402685-21.6572714c-.498685-.6283283-1.075542-1.4625343-1.733267-2.4919231-.528336-.838484-.810116-1.315954-.845338-1.3758901l-.003774-.006432.137475 4.0747755v37.2558543h-2.717158V0h.67929zm119.32071.5395602v46.9214144h-2.851937V.5395602h2.851937zm-61.526919 0v46.9214144h-2.854633V.5395602h2.854633zM180.320279 0c8.457759 0 14.790249 3.0946209 18.997469 9.2838627l-5.663774 4.0024476c-2.932059-4.4857318-7.377527-6.7285977-13.333695-6.7285977-4.889472 0-8.92613 1.6501085-12.107265 4.9449853-3.162184 3.2975469-4.743275 7.4575291-4.743275 12.4772765 0 5.0010569 1.581091 9.1530289 4.743275 12.4479057 3.181135 3.3616287 7.217793 5.0464482 12.107265 5.0464482 3.159477 0 5.920973-.6755298 8.287196-2.0212494 2.203782-1.2335762 4.115171-3.0171886 5.728751-5.3481671L200 38.0058964C195.587021 44.6677421 189.027114 48 180.320279 48c-6.844178 0-12.597295-2.2428659-17.25935-6.7285977-4.751398-4.597875-7.12845-10.3599043-7.12845-17.2914279 0-6.9048228 2.377052-12.6454914 7.12845-17.2193358C167.722984 2.2535462 173.476101 0 180.320279 0zM98.569166.5366858l10.710273 25.1628191c.590202 1.2762975 1.237259 3.0492296 1.943877 5.3134561.614568 1.9277966.920498 2.9370863.920498 3.0278689 0-.136174.273443-1.1214329.81762-2.9611169.656145-2.1024961 1.270271-3.7997941 1.846714-5.0897563l.132358-.2904518L125.480216.5366858h7.196134L112.417257 47.863826h-.920499L90.6907801.5366858h7.8783859zM.7851312.0640818l22.6794634 26.1721089L45.9762024.0640819h.7499357v47.3298103h-7.0607664V23.0748178c0-.9667909.0386737-2.2431996.1139358-3.8312829l.0214316-.4408426.1380748-2.4217611-1.4673832 2.0853312c-.980286 1.377983-1.8354511 2.4732714-2.5654953 3.2838087l-.1960008.2139941-11.9718977 14.1941369h-.8176194L10.9810079 21.9640652c-.687441-.7587473-1.4886283-1.7867275-2.4056473-3.075714l-.2529695-.3580069-1.535067-2.1494131.1353675 2.4217611c.084379 1.6447683.1300844 2.9776752.137116 4.0007773l.0009588.2713482v24.3190744H0V.0640819h.7851312zm73.8646055 0l20.8032705 47.3298104h-7.6726274l-3.5141391-8.544251H64.0748311l-3.4789436 8.544251h-7.1257428L73.7969217.0640819h.852815zm72.2266593.472604v46.8572064h-7.331501V.5366858h7.331501zM74.070364 13.1528064l-.752643 2.485843c-.5248093 1.7006346-1.0011745 3.0827556-1.4290959 4.1484633l-.1059711.2598362-5.1818662 12.7496245h15.0068361l-5.1520853-12.7496245c-.4764935-1.0974023-.9881825-2.5258942-1.535067-4.2721255-.5225184-1.4792235-.80679-2.3576793-.8501076-2.622017z" fill="#141414"/></g></svg>
